<mxfile host="app.diagrams.net" modified="2023-04-08T19:34:07.015Z" agent="Mozilla/5.0 (Macintosh; Intel Mac OS X 10.15; rv:109.0) Gecko/20100101 Firefox/111.0" version="21.1.5" etag="XdxIYOoMNFXfEgT6Nfrg" type="github">
  <diagram name="Page-1" id="HZ1Ek8p38cE2eE2NqH0J">
    <mxGraphModel>
      <root>
        <mxCell id="0" />
        <mxCell id="1" parent="0" />
      </root>
    </mxGraphModel>
  </diagram>
</mxfile>
